HIERARCHY
ROOT Hips
{
	OFFSET -3.958830 18.904000 13.208200
	CHANNELS 6 Xposition Yposition Zposition Zrotation Yrotation Xrotation 
	JOINT LHipJoint
	{
		OFFSET 0.000000 0.000000 0.000000
		CHANNELS 3 Zrotation Yrotation Xrotation
		JOINT LeftUpLeg
		{
			OFFSET 1.800000 -1.400000 0.085000
			CHANNELS 3 Zrotation Yrotation Xrotation
			JOINT LeftLeg
			{
				OFFSET 2.215000 -6.000000 0.000000
				CHANNELS 3 Zrotation Yrotation Xrotation
				JOINT LeftFoot
				{
					OFFSET 2.500000 -6.900000 0.000000
					CHANNELS 3 Zrotation Yrotation Xrotation
					JOINT LeftToeBase
					{
						OFFSET 0.200000 -0.500000 1.950000
						CHANNELS 3 Zrotation Yrotation Xrotation
						End Site
						{
							OFFSET 0.000000 0.000000 0.000000
						}
					}
				}
			}
		}
	}
	JOINT RHipJoint
	{
		OFFSET 0.000000 0.000000 0.000000
		CHANNELS 3 Zrotation Yrotation Xrotation
		JOINT RightUpLeg
		{
			OFFSET -1.800000 -1.400000 0.085000
			CHANNELS 3 Zrotation Yrotation Xrotation
			JOINT RightLeg
			{
				OFFSET -2.215000 -6.000000 0.000000
				CHANNELS 3 Zrotation Yrotation Xrotation
				JOINT RightFoot
				{
					OFFSET -2.500000 -6.900000 0.000000
					CHANNELS 3 Zrotation Yrotation Xrotation
					JOINT RightToeBase
					{
						OFFSET -0.200000 -0.500000 1.950000
						CHANNELS 3 Zrotation Yrotation Xrotation
						End Site
						{
							OFFSET 0.000000 0.000000 0.000000
						}
					}
				}
			}
		}
	}
	JOINT LowerBack
	{
		OFFSET 0.000000 0.000000 0.000000
		CHANNELS 3 Zrotation Yrotation Xrotation
		JOINT Spine
		{
			OFFSET -0.087000 1.940000 -0.288900
			CHANNELS 3 Zrotation Yrotation Xrotation
			JOINT Spine1
			{
				OFFSET 0.000000 1.950000 0.060000
				CHANNELS 3 Zrotation Yrotation Xrotation
				JOINT Neck
				{
					OFFSET 0.000000 0.000000 0.000000
					CHANNELS 3 Zrotation Yrotation Xrotation
					JOINT Neck1
					{
						OFFSET 0.000000 1.600000 0.340000
						CHANNELS 3 Zrotation Yrotation Xrotation
						JOINT Head
						{
							OFFSET 0.000000 1.667000 -0.240000
							CHANNELS 3 Zrotation Yrotation Xrotation
							End Site
							{
								OFFSET 0.000000 0.000000 0.000000
							}
						}
					}
				}
				JOINT LeftShoulder
				{
					OFFSET 0.000000 0.000000 0.000000
					CHANNELS 3 Zrotation Yrotation Xrotation
					JOINT LeftArm
					{
						OFFSET 2.700000 1.550000 -0.730000
						CHANNELS 3 Zrotation Yrotation Xrotation
						JOINT LeftForeArm
						{
							OFFSET 5.450000 0.000000 0.000000
							CHANNELS 3 Zrotation Yrotation Xrotation
							JOINT LeftHand
							{
								OFFSET 3.450000 0.000000 0.000000
								CHANNELS 3 Zrotation Yrotation Xrotation
								JOINT LeftHandIndex1
								{
									OFFSET 0.750000 0.000000 0.000000
									CHANNELS 3 Zrotation Yrotation Xrotation
									End Site
									{
										OFFSET 0.000000 0.000000 0.000000
									}
								}
							}
						}
					}
				}
				JOINT RightShoulder
				{
					OFFSET 0.000000 0.000000 0.000000
					CHANNELS 3 Zrotation Yrotation Xrotation
					JOINT RightArm
					{
						OFFSET -2.700000 1.550000 -0.730000
						CHANNELS 3 Zrotation Yrotation Xrotation
						JOINT RightForeArm
						{
							OFFSET -5.450000 0.000000 0.000000
							CHANNELS 3 Zrotation Yrotation Xrotation
							JOINT RightHand
							{
								OFFSET -3.450000 0.000000 0.000000
								CHANNELS 3 Zrotation Yrotation Xrotation
								JOINT RightHandIndex1
								{
									OFFSET -0.750000 0.000000 0.000000
									CHANNELS 3 Zrotation Yrotation Xrotation
									End Site
									{
										OFFSET 0.000000 0.000000 0.000000
									}
								}
							}
						}
					}
				}
			}
		}
	}
}
MOTION
Frames: 9
Frame Time: 0.016667
-1.163450 17.497300 -3.398250 -1.968115 1.118549 -7.051814 -14.879544 13.529302 2.451784 16.611696 0.078266 -11.263444 -7.210782 8.417637 19.513339 0.220187 5.087492 2.751060 -0.026640 -0.161350 -0.002830 18.417621 -11.664877 2.261245 -10.318558 -0.656990 -7.384382 6.403568 -6.685785 18.529111 -0.221208 -4.194170 2.996229 -0.149730 0.094540 0.038450 -4.207579 -0.761929 -6.658641 10.829564 -0.770110 3.032593 -5.665896 -0.640988 7.747437 2.124232 -4.490978 -9.404619 -9.739935 5.182993 37.364850 -0.070440 3.274150 1.602450 -11.588585 4.965108 4.769056 -64.271329 8.281468 -13.049495 -38.807959 -41.162200 10.303053 -3.486107 3.304407 0.166110 0.017570 -0.024360 0.050210 7.329158 -1.082417 4.819694 66.919127 -0.487868 -11.255712 39.424744 38.370121 9.128752 2.463327 -1.637844 -0.059520 0.014350 0.019220 -0.043520 
-1.166360 17.495950 -3.390750 -1.938394 0.939170 -6.965019 -14.872180 13.503241 2.462167 16.655988 0.098788 -11.098976 -7.482252 8.453477 19.245239 0.230804 5.087499 2.746943 -0.021130 -0.157280 0.003030 18.426002 -11.668644 2.263502 -10.342199 -0.657878 -7.369071 6.443124 -6.682806 18.423875 -0.225844 -4.192008 2.992140 -0.152830 0.079850 0.045600 -4.226644 -0.712274 -6.661604 10.987597 -0.569269 2.944195 -5.689499 -0.454108 7.673195 2.134786 -4.495520 -9.403788 -9.783518 4.898062 37.359659 -0.340460 3.122070 1.476220 -11.286381 5.222162 4.690924 -64.144283 8.232776 -12.819707 -39.526461 -40.653548 10.446431 -3.480604 3.316461 0.166900 0.011000 -0.016710 0.047280 6.986028 -1.288429 4.885845 67.304524 -0.789511 -11.440697 39.263240 37.973501 8.938676 2.465337 -1.640874 -0.048320 -0.000120 0.015400 -0.044170 
-1.170000 17.504050 -3.379150 -1.743377 0.609255 -6.863105 -14.856864 13.466874 2.474812 16.583084 0.135555 -10.812426 -7.914715 8.538555 18.955308 0.248632 5.100845 2.745446 -0.015620 -0.150380 0.015060 18.442198 -11.683013 2.261184 -10.506487 -0.673494 -7.284599 6.318253 -6.607964 18.118720 -0.229542 -4.170478 3.000161 -0.154780 0.066610 0.048460 -4.265909 -0.633658 -6.658703 11.236518 -0.418640 2.823542 -6.061660 -0.309784 7.579025 2.202470 -4.493523 -9.351132 -9.764760 4.691800 37.299404 -0.889550 3.259920 1.217130 -11.376794 5.415884 4.606299 -63.428572 8.538298 -12.668971 -40.491363 -40.076822 10.633126 -3.476897 3.316006 0.167270 0.006080 -0.006290 0.046100 6.892839 -1.466564 4.907807 68.032558 -0.943192 -11.642793 38.801361 37.799640 8.715254 2.470042 -1.635071 -0.040210 -0.005680 0.007050 -0.045370 
-1.174060 17.506060 -3.371010 -1.707930 0.656489 -6.745655 -14.852164 13.466093 2.462020 16.440577 0.133269 -10.693184 -7.696455 8.373142 18.585111 0.238184 5.030560 2.777264 -0.023220 -0.159150 0.008770 18.446710 -11.719272 2.254404 -10.211953 -0.666759 -7.402581 5.701072 -6.429970 18.204564 -0.217554 -4.128467 3.016800 -0.158310 0.075900 0.051670 -4.277534 -0.566668 -6.637634 11.153011 -0.320145 2.787330 -6.148334 -0.211776 7.625324 2.185332 -4.184652 -9.257707 -9.041980 4.411575 36.734067 -0.706810 3.153880 1.206650 -11.120534 5.672259 4.592269 -63.292739 8.717864 -12.617407 -41.938136 -40.253613 11.235318 -3.482000 3.332086 0.161500 0.013780 -0.013090 0.045710 6.662698 -1.958062 4.837271 68.575122 -1.207566 -11.784358 39.280348 37.677760 8.790880 2.465360 -1.642081 -0.042330 -0.006900 0.011190 -0.043830 
-1.169250 17.502090 -3.365410 -1.686379 0.601791 -6.626909 -14.833607 13.459034 2.448909 16.275133 0.123002 -10.676847 -7.511208 8.273361 18.490640 0.233773 4.977040 2.796542 -0.030190 -0.167820 0.005420 18.461979 -11.746512 2.269130 -10.159090 -0.684095 -7.385883 5.547245 -6.348317 17.915654 -0.215973 -4.094690 3.031043 -0.167150 0.073500 0.050960 -4.324468 -0.497334 -6.638227 11.431909 -0.274522 2.792808 -6.547399 -0.143604 7.530906 2.246436 -4.088327 -9.277992 -8.807219 4.365480 36.742018 -0.531650 3.128130 1.140430 -11.008929 5.921487 4.623926 -63.394938 9.135178 -12.873497 -42.505178 -40.794096 11.629320 -3.471650 3.334766 0.168190 0.009000 -0.009340 0.043170 6.383227 -2.282002 4.876375 69.396916 -1.480310 -12.058939 39.407965 37.623191 8.788349 2.465397 -1.634547 -0.042730 -0.007780 0.014060 -0.044530 
-1.167410 17.495770 -3.360950 -1.671308 0.622491 -6.496905 -14.831722 13.476520 2.435155 16.024956 0.094263 -10.697225 -7.199056 8.127232 18.418637 0.222606 4.915167 2.822146 -0.031250 -0.169190 0.008050 18.462792 -11.772596 2.264915 -9.854197 -0.681059 -7.470837 5.017030 -6.207622 18.069829 -0.208518 -4.063531 3.042916 -0.166780 0.074820 0.054180 -4.327461 -0.477942 -6.619962 11.467181 -0.296659 2.835431 -6.641741 -0.159708 7.543542 2.316637 -4.005788 -9.177141 -8.582560 4.171557 36.343481 -0.898160 3.203400 1.064750 -11.003363 6.132326 4.525828 -63.378645 9.190565 -12.910356 -42.676780 -40.756534 11.686378 -3.478437 3.336174 0.162730 0.014610 -0.011380 0.042760 6.228923 -2.572026 4.824526 69.452315 -1.602052 -12.034206 40.129903 37.343932 8.910086 2.464001 -1.644700 -0.042390 -0.009720 0.013140 -0.045090 
-1.165490 17.498030 -3.353730 -1.695481 0.684490 -6.405401 -14.832168 13.475982 2.430235 15.988976 0.098470 -10.498798 -7.172522 8.044797 18.064389 0.211957 4.887070 2.836685 -0.038520 -0.179670 0.004540 18.462280 -11.749865 2.278208 -10.110886 -0.704283 -7.343877 5.570052 -6.343478 17.808293 -0.211109 -4.091919 3.033736 -0.168860 0.078430 0.045500 -4.328575 -0.512668 -6.627167 11.527921 -0.389164 2.786947 -6.493237 -0.275061 7.492994 2.245919 -4.083462 -9.174042 -8.821382 4.214135 36.815790 -0.794540 3.055860 1.278380 -11.119442 6.178507 4.520119 -63.230139 9.387291 -12.871221 -43.173876 -40.429045 11.737895 -3.479656 3.321853 0.169170 0.012420 -0.015770 0.039520 6.486024 -2.585187 4.804228 69.028578 -1.766712 -12.012379 40.576011 37.380056 9.076306 2.465318 -1.635289 -0.052540 -0.000340 0.019610 -0.048230 
-1.162630 17.498270 -3.343520 -1.546615 0.711829 -6.159576 -14.842631 13.457035 2.438722 15.921543 0.116001 -10.057924 -7.435129 7.949288 17.178172 0.212608 4.856871 2.860547 -0.047040 -0.188740 -0.008960 18.459399 -11.718658 2.267781 -10.284660 -0.704260 -7.374662 5.595011 -6.277138 17.397809 -0.195707 -4.076499 3.041756 -0.167910 0.096250 0.044730 -4.310362 -0.544908 -6.603777 11.322662 -0.484530 2.518695 -6.399853 -0.405807 7.580128 2.113221 -4.221052 -9.066118 -9.053133 4.353867 36.543930 -0.680200 3.000500 1.785480 -10.945136 6.496100 4.506038 -63.055327 9.555411 -12.740245 -43.903258 -40.317287 11.984633 -3.491119 3.334637 0.154800 0.025530 -0.032900 0.041650 6.589238 -2.828851 4.669131 68.784858 -1.752883 -11.857133 40.687729 37.388276 9.149790 2.463054 -1.644711 -0.057530 0.001100 0.026590 -0.043530 
-1.157710 17.506130 -3.343120 -1.615555 0.703914 -5.977152 -14.841616 13.439787 2.435096 15.924515 0.114063 -9.863964 -7.440132 7.847847 16.688447 0.207245 4.825948 2.880339 -0.049070 -0.189240 -0.015820 18.465847 -11.702047 2.275798 -10.219712 -0.703499 -7.413850 5.603987 -6.194150 16.952890 -0.187108 -4.048075 3.056154 -0.163490 0.109810 0.044540 -4.321134 -0.538300 -6.594443 11.424412 -0.518738 2.425506 -6.273142 -0.468931 7.699971 2.018905 -4.212527 -8.997560 -9.005571 4.407845 36.423256 -0.554240 2.973920 1.985100 -10.928599 6.525254 4.553602 -62.885960 9.614077 -12.623237 -44.837556 -40.768938 12.515748 -3.496974 3.347935 0.146660 0.035270 -0.041690 0.046340 6.766325 -2.901265 4.529292 68.417251 -1.561173 -11.588548 40.886332 37.172204 9.175783 2.462163 -1.648885 -0.061700 0.006850 0.028600 -0.039920 
